<?xml version="1.0" encoding="utf-8"?>
<!-- Generator: Adobe Illustrator 25.2.1, SVG Export Plug-In . SVG Version: 6.00 Build 0)  -->
<svg version="1.1" id="Layer_1" xmlns="http://www.w3.org/2000/svg" xmlns:xlink="http://www.w3.org/1999/xlink" x="0px" y="0px"
	 viewBox="0 0 656.6 195.53" style="enable-background:new 0 0 656.6 195.53;" xml:space="preserve">
<style type="text/css">
	.st0{fill:#039BE5;}
	.st1{fill:#54565B;}
</style>
<path class="st0" d="M8.28,177.72C2.98,172.42,0,165.24,0,157.74l0-73.14c0-0.98,1.25-1.37,1.82-0.57c1.9,2.7,4.05,5.27,6.46,7.68
	c23.04,23.04,60.4,23.04,83.44,0c19.53-19.53,51.19-19.53,70.71,0c5.05,5.05,8.79,10.92,11.22,17.18c0.33,0.85,1.52,0.84,1.85,0
	c2.84-7.3,7.45-14.07,13.86-19.64c18.72-16.26,47-16.18,65.63,0.18c0.45,0.39,0.89,0.79,1.32,1.2c9.29,8.74,14.29,21.11,14.29,33.86
	v70.04c0,0.55-0.45,1-1,1c-0.42,0-0.79-0.26-0.93-0.64c-2.8-7.2-7.34-13.88-13.61-19.4c-18.62-16.41-46.92-16.52-65.67-0.26
	c-6.42,5.57-11.04,12.35-13.89,19.66c-0.33,0.85-1.52,0.85-1.85,0c-2.44-6.26-6.17-12.12-11.22-17.18
	c-19.53-19.53-51.18-19.53-70.71,0C68.68,200.76,31.32,200.76,8.28,177.72z M50,0C22.39,0,0,22.39,0,50s22.39,50,50,50
	s50-22.39,50-50S77.61,0,50,0z"/>
<g>
	<path class="st1" d="M320.6,79.24h23.48v114.29H320.6V79.24z"/>
	<path class="st1" d="M574.29,79.24h29.96c30.73,0,52.36,12.66,52.36,56.83c0,44.48-22.09,57.45-52.36,57.45h-29.96V79.24z
		 M606.41,173.91c19.77,0,26.72-10.19,26.72-37.84c0-26.72-6.95-37.07-26.87-37.07h-8.49v74.9H606.41z"/>
	<path class="st1" d="M520.38,176.23c-13.73,0-20.37-14.03-20.39-39.92c0.01-25.9,6.65-39.92,20.39-39.92
		c9.91,0,14.87,6.15,17.88,21.16H561c-4.17-23.01-14.98-40.46-40.77-40.46c-26.24,0-43.84,18.05-43.86,59.23
		c0.02,41.18,17.62,59.23,43.86,59.23c25.79,0,36.6-17.45,40.77-40.46h-22.74C535.26,170.08,530.29,176.23,520.38,176.23z"/>
	<path class="st1" d="M384.3,79.24h-21.92v114.29h20.54V112.6h0.31c1.41,5.38,5.17,15.87,6.6,19.28l13.52,34.53h15.78l13.58-34.16
		c1.9-4.42,5.34-13.99,6.59-19.03h0.31v80.31h22.24V79.24h-23.39l-5.03,0l-20.85,55.58h-0.15l-22.09-55.58L384.3,79.24z"/>
</g>
</svg>
