<svg width="167" height="71" viewBox="0 0 167 71" fill="none" xmlns="http://www.w3.org/2000/svg">
<path fill-rule="evenodd" clip-rule="evenodd" d="M66.085 30.3897C64.1761 30.3897 62.969 29.2573 62.969 27.5006V4.27132C62.969 2.47535 64.1761 1.34351 66.085 1.34351H82.1721V4.70081H67.0978V13.9143H80.341V17.1935H67.0978V27.0324H82.2886V30.3897H66.085Z" fill="#42454F"/>
<path fill-rule="evenodd" clip-rule="evenodd" d="M86.6128 30.3895V1.03071L90.3904 0.289062V30.3895H86.6128Z" fill="#42454F"/>
<path fill-rule="evenodd" clip-rule="evenodd" d="M103.867 27.3051C105.113 27.3051 106.788 26.9149 108.969 26.29L110.723 25.8213L111.307 29.0618L109.593 29.5693C107.177 30.2329 105.23 30.6236 103.556 30.6236C97.8299 30.6236 93.895 27.2663 93.895 19.7315C93.895 12.6257 97.8299 8.83887 103.556 8.83887C105.23 8.83887 107.177 9.26835 109.593 9.93195L111.307 10.4395L110.723 13.68L108.969 13.1725C106.788 12.5869 105.075 12.1962 103.828 12.1962C99.8156 12.1962 97.7129 14.6563 97.7129 19.7315C97.7129 24.8455 99.8156 27.3051 103.867 27.3051Z" fill="#42454F"/>
<path fill-rule="evenodd" clip-rule="evenodd" d="M129.03 21.0975H123.187C120.071 21.0975 118.24 22.0738 118.24 24.5333C118.24 26.6808 119.721 27.6565 122.291 27.6565C123.421 27.6565 125.135 27.4224 126.926 26.9929L129.03 26.4854V21.0975ZM133.665 30.819L131.757 29.7259C130.938 29.2571 130.004 29.101 128.874 29.4132L127.433 29.7647C125.602 30.2329 123.343 30.6629 121.707 30.6629C117.228 30.6629 114.579 28.4374 114.579 24.6894C114.579 19.6535 118.786 18.2477 123.538 18.2477H128.991V16.1396C128.991 13.1725 127.16 12.1181 124.434 12.1181C122.564 12.1181 120.188 12.6257 117.812 13.2898L115.981 13.8361L115.397 10.6741L117.15 10.1661C119.876 9.34639 122.291 8.83887 124.629 8.83887C129.069 8.83887 132.536 10.869 132.536 16.0615V26.6808L135.067 28.2028L133.665 30.819Z" fill="#42454F"/>
<mask id="mask0" style="mask-type:alpha" maskUnits="userSpaceOnUse" x="0" y="1" width="167" height="53">
<path fill-rule="evenodd" clip-rule="evenodd" d="M0.551025 1.40845H166.423V53.0271H0.551025V1.40845Z" fill="white"/>
</mask>
<g mask="url(#mask0)">
<path fill-rule="evenodd" clip-rule="evenodd" d="M141.689 30.3896H138.028V12.8599C138.028 11.2205 138.885 10.3615 140.443 9.89276C142.818 9.11235 144.805 8.91699 146.519 8.91699C148.973 8.91699 150.765 9.54184 151.933 10.6349C154.231 9.61988 156.607 8.91699 159.023 8.91699C164.281 8.91699 166.423 11.8841 166.423 16.2564V30.3896H162.762V16.6079C162.762 13.9922 161.71 12.2355 158.633 12.2355C156.686 12.2355 155.322 12.7043 153.57 13.3679C153.92 14.2263 154.115 15.2026 154.115 16.335V30.3896H150.453V16.6079C150.453 13.9922 149.44 12.2355 146.285 12.2355C145.156 12.2355 143.87 12.3136 141.689 13.0165V30.3896Z" fill="#42454F"/>
<path fill-rule="evenodd" clip-rule="evenodd" d="M0.734869 3.00958C0.274492 2.12809 0.707695 1.40845 1.69899 1.40845H7.29824C8.29058 1.40845 9.47262 2.13176 9.92725 3.01482L18.6295 19.9244C19.0841 20.808 18.6896 21.7963 17.7537 22.1205C17.7537 22.1205 14.6711 23.188 12.5547 25.6266L0.734869 3.00958ZM1.73975 53.0271C0.748978 53.0271 0.311071 52.3054 0.76779 51.4239L12.1591 29.4574C12.6174 28.5759 13.5972 27.3136 14.3377 26.6532C14.3377 26.6532 18.6525 22.8046 22.592 22.8046H45.2022C46.193 22.8046 47.0046 23.6164 47.0046 24.6115V28.5916C47.0046 29.5857 46.193 30.3991 45.2022 30.3991H24.9906C23.9977 30.3991 22.4384 30.7139 21.5234 31.0973C21.5234 31.0973 19.5236 31.9368 18.386 34.7741L9.77361 51.4228C9.3169 52.3054 8.1312 53.0271 7.14043 53.0271H1.73975Z" fill="#F7921E"/>
</g>
<path fill-rule="evenodd" clip-rule="evenodd" d="M13.024 2.98372C12.5778 2.0949 13.024 1.36792 14.0159 1.36792H49.1189C50.1097 1.36792 50.9239 2.1808 50.9239 3.17489V7.43463C50.9239 8.4282 50.1097 9.27931 49.1189 9.28036H17.9858C16.9913 9.28193 15.815 8.55495 15.3709 7.66718L13.024 2.98372Z" fill="#87898F"/>
<path fill-rule="evenodd" clip-rule="evenodd" d="M13.936 53.0271C12.9442 53.0271 12.4927 52.2969 12.928 51.4045L15.2283 46.6969C15.6646 45.8044 16.8352 45.0732 17.826 45.0732H49.119C50.1098 45.0732 50.924 45.8861 50.924 46.8807V51.2196C50.924 52.2142 50.1098 53.0271 49.119 53.0271H13.936Z" fill="#87898F"/>
<path fill-rule="evenodd" clip-rule="evenodd" d="M20.5359 67.9296C20.4517 68.3077 20.1899 68.512 19.7604 68.512C19.3308 68.512 19.0586 68.3381 18.964 67.9809L17.2772 62.1483L15.5381 67.9809C15.4331 68.3282 15.1504 68.5015 14.7522 68.5015C14.3226 68.5015 14.0608 68.2873 13.9976 67.9196L12.6462 60.8311H13.694L14.8358 67.2246L16.6172 61.2909C16.7013 60.9845 16.9422 60.8311 17.2981 60.8311C17.6545 60.8311 17.8954 60.9845 17.9795 61.2909L19.7186 67.2351L20.8708 60.8311H21.9086L20.5359 67.9296Z" fill="#42454F"/>
<path fill-rule="evenodd" clip-rule="evenodd" d="M24.8508 63.9363V68.4302H23.8657V60.7393L24.8508 60.5549V63.1187C25.5844 62.894 26.0558 62.8228 26.4116 62.8228C27.9835 62.8228 28.4972 63.7216 28.4972 64.8246V68.4302H27.5122V64.8754C27.5122 64.2118 27.2185 63.7012 26.2653 63.7012C25.9716 63.7012 25.668 63.7315 24.8508 63.9363Z" fill="#42454F"/>
<path fill-rule="evenodd" clip-rule="evenodd" d="M32.8343 63.5477C31.8811 63.5477 31.2937 64.2014 31.231 65.2536H34.4375C34.4375 64.3239 33.9656 63.5477 32.8343 63.5477ZM32.8552 62.782C34.3957 62.782 35.4324 63.6603 35.4324 65.5087C35.4324 65.8355 35.2757 66.0199 34.9402 66.0199H31.231C31.2937 67.1329 32.0588 67.6336 33.0647 67.6336C33.4838 67.6336 33.9343 67.5618 34.6256 67.3576L35.1915 67.1842L35.3593 67.9908L34.8038 68.1647C34.0497 68.3993 33.5575 68.4915 33.0125 68.4915C31.357 68.4915 30.2361 67.5513 30.2361 65.6517C30.2361 63.6499 31.451 62.782 32.8552 62.782Z" fill="#42454F"/>
<path fill-rule="evenodd" clip-rule="evenodd" d="M40.5756 63.6908C39.8633 63.6908 39.2451 63.7217 38.5956 63.8951V68.4303H37.6001V63.8543C37.6001 63.4153 37.8305 63.1802 38.2496 63.0681C39.0356 62.8534 39.5696 62.8125 40.5756 62.8125V63.6908Z" fill="#42454F"/>
<path fill-rule="evenodd" clip-rule="evenodd" d="M44.1861 63.5477C43.2329 63.5477 42.6461 64.2014 42.5834 65.2536H45.7893C45.7893 64.3239 45.3174 63.5477 44.1861 63.5477ZM44.207 62.782C45.7475 62.782 46.7848 63.6603 46.7848 65.5087C46.7848 65.8355 46.6275 66.0199 46.292 66.0199H42.5834C42.6461 67.1329 43.4111 67.6336 44.4165 67.6336C44.8356 67.6336 45.2861 67.5618 45.9779 67.3576L46.5439 67.1842L46.7111 67.9908L46.1556 68.1647C45.4015 68.3993 44.9093 68.4915 44.3643 68.4915C42.7088 68.4915 41.5879 67.5513 41.5879 65.6517C41.5879 63.6499 42.8028 62.782 44.207 62.782Z" fill="#42454F"/>
<path fill-rule="evenodd" clip-rule="evenodd" d="M55.2423 63.5477C54.2886 63.5477 53.7017 64.2014 53.639 65.2536H56.8455C56.8455 64.3239 56.3736 63.5477 55.2423 63.5477ZM55.2632 62.782C56.8031 62.782 57.8404 63.6603 57.8404 65.5087C57.8404 65.8355 57.6837 66.0199 57.3482 66.0199H53.639C53.7017 67.1329 54.4668 67.6336 55.4727 67.6336C55.8918 67.6336 56.3422 67.5618 57.0336 67.3576L57.5995 67.1842L57.7673 67.9908L57.2118 68.1647C56.4577 68.3993 55.965 68.4915 55.4204 68.4915C53.765 68.4915 52.6436 67.5513 52.6436 65.6517C52.6436 63.6499 53.859 62.782 55.2632 62.782Z" fill="#42454F"/>
<path fill-rule="evenodd" clip-rule="evenodd" d="M62.4609 68.0521C62.3559 68.3585 62.0732 68.5319 61.7063 68.5319C61.3296 68.5319 61.0672 68.3685 60.9518 68.0521L59.1082 62.8533H60.1977L61.7377 67.4597L63.3409 62.8533H64.4095L62.4609 68.0521Z" fill="#42454F"/>
<path fill-rule="evenodd" clip-rule="evenodd" d="M68.1246 63.5477C67.1709 63.5477 66.5841 64.2014 66.5214 65.2536H69.7273C69.7273 64.3239 69.2559 63.5477 68.1246 63.5477ZM68.1455 62.782C69.6855 62.782 70.7227 63.6603 70.7227 65.5087C70.7227 65.8355 70.5655 66.0199 70.2305 66.0199H66.5214C66.5841 67.1329 67.3491 67.6336 68.355 67.6336C68.7741 67.6336 69.2246 67.5618 69.9159 67.3576L70.4818 67.1842L70.6496 67.9908L70.0941 68.1647C69.3401 68.3993 68.8473 68.4915 68.3022 68.4915C66.6473 68.4915 65.5259 67.5513 65.5259 65.6517C65.5259 63.6499 66.7414 62.782 68.1455 62.782Z" fill="#42454F"/>
<path fill-rule="evenodd" clip-rule="evenodd" d="M75.8656 63.6908C75.1533 63.6908 74.5352 63.7217 73.8851 63.8951V68.4303H72.8901V63.8543C72.8901 63.4153 73.1206 63.1802 73.5397 63.0681C74.3256 62.8534 74.8597 62.8125 75.8656 62.8125V63.6908Z" fill="#42454F"/>
<path fill-rule="evenodd" clip-rule="evenodd" d="M77.4993 70.0948L77.6357 69.2777C78.1389 69.4003 78.4007 69.4615 78.6521 69.4615C79.1652 69.4615 79.3434 69.2065 79.427 68.8692L79.5007 68.6141L77.2271 62.8533H78.3375L80.0139 67.4498L81.4499 62.8533H82.5284L80.4121 68.9818C80.1085 69.8601 79.6162 70.2891 78.6939 70.2891C78.3798 70.2891 78.0443 70.2378 77.4993 70.0948Z" fill="#42454F"/>
<path fill-rule="evenodd" clip-rule="evenodd" d="M87.9709 68.3076C87.4044 68.4302 87.0161 68.4915 86.7021 68.4915C85.5295 68.4915 84.963 67.8583 84.963 66.6321V63.7625H84.083V62.9454H84.963V61.6072L85.9475 61.4233V62.9454H87.8235V63.7625H85.9475V66.6222C85.9475 67.3067 86.168 67.654 86.8071 67.654C87.0376 67.654 87.3307 67.6027 87.834 67.4906L87.9709 68.3076Z" fill="#42454F"/>
<path fill-rule="evenodd" clip-rule="evenodd" d="M90.9762 63.9363V68.4302H89.9917V60.7393L90.9762 60.5549V63.1187C91.7104 62.894 92.1818 62.8228 92.5381 62.8228C94.109 62.8228 94.6221 63.7216 94.6221 64.8246V68.4302H93.6381V64.8754C93.6381 64.2118 93.3445 63.7012 92.3913 63.7012C92.0971 63.7012 91.794 63.7315 90.9762 63.9363Z" fill="#42454F"/>
<path fill-rule="evenodd" clip-rule="evenodd" d="M96.4615 68.4303H97.4576V62.8533H96.4615V68.4303ZM96.9543 61.8629C96.5666 61.8629 96.3257 61.6178 96.3257 61.2297C96.3257 60.841 96.5666 60.5964 96.9543 60.5964C97.3421 60.5964 97.583 60.841 97.583 61.2297C97.583 61.6178 97.3421 61.8629 96.9543 61.8629Z" fill="#42454F"/>
<path fill-rule="evenodd" clip-rule="evenodd" d="M100.558 68.4303H99.5627V63.8443C99.5627 63.4153 99.7937 63.1702 100.213 63.0681C101.103 62.8329 101.638 62.8125 102.036 62.8125C103.618 62.8125 104.236 63.6809 104.236 64.8143V68.4303H103.24V64.9065C103.24 64.2015 102.947 63.6809 101.952 63.6809C101.638 63.6809 101.312 63.7013 100.558 63.8852V68.4303Z" fill="#42454F"/>
<path fill-rule="evenodd" clip-rule="evenodd" d="M109.642 67.9909H107.327C107.116 68.2156 107.023 68.4607 107.023 68.7467C107.023 69.339 107.714 69.5538 108.647 69.5538C109.987 69.5538 110.606 69.2269 110.606 68.5937C110.606 68.2465 110.333 67.9909 109.642 67.9909ZM108.5 63.5991C107.599 63.5991 106.991 63.8746 106.991 64.6304C106.991 65.4271 107.61 65.6931 108.5 65.6931C109.359 65.6931 110.009 65.4066 110.009 64.6304C110.009 63.8746 109.401 63.5991 108.5 63.5991ZM106.509 67.7148L107.033 67.0921C107.17 66.9182 107.222 66.7752 107.222 66.6118C107.222 66.3772 107.128 66.2242 106.844 66.0404C106.499 65.7947 106.048 65.4271 106.048 64.6304C106.048 63.4457 107.012 62.8737 108.469 62.8737H109.066C109.621 62.8737 109.904 62.8433 110.155 62.7716L111.412 62.4348L111.623 63.2006L110.449 63.5274C110.449 63.5274 110.952 63.8647 110.952 64.6304C110.952 65.7947 110.04 66.3567 108.531 66.3567C108.133 66.3567 107.924 66.3054 107.924 66.3054C107.998 66.3772 108.049 66.5201 108.049 66.6736C108.049 66.847 107.998 67.0104 107.808 67.2351H109.683C110.92 67.2351 111.517 67.7766 111.517 68.5628C111.517 69.6454 110.596 70.2687 108.573 70.2687C107.274 70.2687 106.101 69.8806 106.101 68.7775C106.101 68.2973 106.321 67.9401 106.509 67.7148Z" fill="#42454F"/>
<path fill-rule="evenodd" clip-rule="evenodd" d="M119.954 67.6232C120.29 67.6232 120.74 67.521 121.327 67.3576L121.798 67.235L121.956 68.083L121.494 68.2155C120.845 68.3889 120.322 68.4915 119.87 68.4915C118.33 68.4915 117.272 67.6132 117.272 65.6418C117.272 63.7829 118.33 62.792 119.87 62.792C120.322 62.792 120.845 62.9046 121.494 63.078L121.956 63.211L121.798 64.0584L121.327 63.9259C120.74 63.7725 120.279 63.6703 119.944 63.6703C118.865 63.6703 118.299 64.314 118.299 65.6418C118.299 66.98 118.865 67.6232 119.954 67.6232Z" fill="#42454F"/>
<path fill-rule="evenodd" clip-rule="evenodd" d="M126.094 63.5787C124.994 63.5787 124.417 64.3345 124.417 65.6418C124.417 66.98 125.036 67.7049 126.136 67.7049C127.236 67.7049 127.823 66.9695 127.823 65.6418C127.823 64.3345 127.194 63.5787 126.094 63.5787ZM126.094 68.4915C124.439 68.4915 123.402 67.4498 123.402 65.6418C123.402 63.8238 124.481 62.792 126.136 62.792C127.792 62.792 128.84 63.8238 128.84 65.6418C128.84 67.4702 127.75 68.4915 126.094 68.4915Z" fill="#42454F"/>
<path fill-rule="evenodd" clip-rule="evenodd" d="M131.636 68.4303H130.641V63.8443C130.641 63.4153 130.872 63.1702 131.291 63.0681C132.181 62.8329 132.716 62.8125 133.114 62.8125C134.696 62.8125 135.314 63.6809 135.314 64.8143V68.4303H134.318V64.9065C134.318 64.2015 134.025 63.6809 133.03 63.6809C132.716 63.6809 132.39 63.7013 131.636 63.8852V68.4303Z" fill="#42454F"/>
<path fill-rule="evenodd" clip-rule="evenodd" d="M138.352 68.4303H137.357V63.8443C137.357 63.4153 137.588 63.1702 138.007 63.0681C138.897 62.8329 139.432 62.8125 139.83 62.8125C141.412 62.8125 142.03 63.6809 142.03 64.8143V68.4303H141.034V64.9065C141.034 64.2015 140.741 63.6809 139.746 63.6809C139.432 63.6809 139.106 63.7013 138.352 63.8852V68.4303Z" fill="#42454F"/>
<path fill-rule="evenodd" clip-rule="evenodd" d="M146.237 63.5477C145.283 63.5477 144.697 64.2014 144.634 65.2536H147.84C147.84 64.3239 147.368 63.5477 146.237 63.5477ZM146.258 62.782C147.798 62.782 148.835 63.6603 148.835 65.5087C148.835 65.8355 148.677 66.0199 148.343 66.0199H144.634C144.697 67.1329 145.462 67.6336 146.467 67.6336C146.887 67.6336 147.337 67.5618 148.028 67.3576L148.594 67.1842L148.763 67.9908L148.207 68.1647C147.452 68.3993 146.96 68.4915 146.415 68.4915C144.759 68.4915 143.639 67.5513 143.639 65.6517C143.639 63.6499 144.854 62.782 146.258 62.782Z" fill="#42454F"/>
<path fill-rule="evenodd" clip-rule="evenodd" d="M153.047 67.6232C153.381 67.6232 153.833 67.521 154.42 67.3576L154.89 67.235L155.047 68.083L154.587 68.2155C153.937 68.3889 153.413 68.4915 152.963 68.4915C151.423 68.4915 150.365 67.6132 150.365 65.6418C150.365 63.7829 151.423 62.792 152.963 62.792C153.413 62.792 153.937 62.9046 154.587 63.078L155.047 63.211L154.89 64.0584L154.42 63.9259C153.833 63.7725 153.372 63.6703 153.036 63.6703C151.957 63.6703 151.392 64.314 151.392 65.6418C151.392 66.98 151.957 67.6232 153.047 67.6232Z" fill="#42454F"/>
<path fill-rule="evenodd" clip-rule="evenodd" d="M160.484 68.3076C159.919 68.4302 159.531 68.4915 159.216 68.4915C158.043 68.4915 157.477 67.8583 157.477 66.6321V63.7625H156.598V62.9454H157.477V61.6072L158.462 61.4233V62.9454H160.337V63.7625H158.462V66.6222C158.462 67.3067 158.682 67.654 159.322 67.654C159.551 67.654 159.845 67.6027 160.348 67.4906L160.484 68.3076Z" fill="#42454F"/>
<path fill-rule="evenodd" clip-rule="evenodd" d="M164.959 65.3453C165.954 65.5087 166.519 66.0095 166.519 66.837C166.519 67.9704 165.556 68.5015 164.465 68.5015C163.711 68.5015 163.135 68.3789 162.412 68.1747L161.951 68.0317L162.119 67.2047L162.601 67.3477C163.219 67.521 163.827 67.6745 164.465 67.6745C165.042 67.6745 165.545 67.4498 165.545 66.8878C165.545 66.4997 165.293 66.2441 164.644 66.1524L163.544 65.9581C162.548 65.7947 161.982 65.284 161.982 64.457C161.982 63.3231 162.947 62.792 164.036 62.792C164.79 62.792 165.356 62.9146 166.079 63.1293L166.551 63.2618L166.383 64.0993L165.891 63.9563C165.283 63.7829 164.665 63.6295 164.025 63.6295C163.449 63.6295 162.947 63.8542 162.947 64.4162C162.947 64.8043 163.198 65.0494 163.847 65.1615L164.959 65.3453Z" fill="#42454F"/>
<path fill-rule="evenodd" clip-rule="evenodd" d="M79.1601 53.0935H76.1402V42.1652L72.8104 52.0046C72.5826 52.8112 72.0036 53.1946 71.0107 53.1946C70.0179 53.1946 69.418 52.7913 69.1488 52.0046L65.8813 42.1448V53.0935H62.9648V40.0477C62.9648 38.6565 63.9781 37.9709 65.4883 37.9709C67.2049 37.9709 67.9292 38.7974 68.3012 39.9267L71.0729 48.5368L73.9684 39.9267C74.341 38.7974 74.9822 37.9709 76.6988 37.9709C78.2085 37.9709 79.1601 38.6565 79.1601 40.0477V53.0935Z" fill="#42454F"/>
<path fill-rule="evenodd" clip-rule="evenodd" d="M85.3846 53.0936C84.1639 53.0936 83.4407 52.4284 83.4407 51.3395V39.866C83.4407 38.7776 84.1639 38.092 85.3846 38.092H94.2582V40.572H86.8117V44.2619H93.3275V46.6414H86.8117V50.634H94.2995V53.0936H85.3846Z" fill="#42454F"/>
<path fill-rule="evenodd" clip-rule="evenodd" d="M103.916 40.6124H101.6V50.5533H104.04C106.585 50.5533 108.053 48.8192 108.053 45.6331C108.053 42.5278 106.522 40.6124 103.916 40.6124ZM104.103 53.0936H100.173C98.952 53.0936 98.2283 52.4284 98.2283 51.3395V39.866C98.2283 38.7776 98.952 38.092 100.173 38.092H104.165C108.57 38.092 111.383 40.8947 111.383 45.6331C111.383 50.392 108.467 53.0936 104.103 53.0936Z" fill="#42454F"/>
<path fill-rule="evenodd" clip-rule="evenodd" d="M115.312 53.0936H118.725V38.092H115.312V53.0936Z" fill="#42454F"/>
<path fill-rule="evenodd" clip-rule="evenodd" d="M129.832 37.991C131.218 37.991 132.583 38.2733 134.072 38.7169L135.272 39.0799L134.837 41.7416L133.596 41.3786C132.293 40.9958 131.279 40.7538 130.204 40.7538C127.64 40.7538 126.15 42.3062 126.15 45.6132C126.15 48.9601 127.681 50.4523 130.225 50.4523C131.259 50.4523 132.376 50.271 133.596 49.8678L134.837 49.4645L135.272 52.1461L134.072 52.5091C132.603 52.9527 131.197 53.2549 129.811 53.235C125.592 53.235 122.634 50.7953 122.634 45.6132C122.634 40.5118 125.674 37.991 129.832 37.991Z" fill="#42454F"/>
<path fill-rule="evenodd" clip-rule="evenodd" d="M145.539 41.2576L143.284 47.9319H147.711L145.539 41.2576ZM149.283 53.0935L148.352 50.3511H142.622L141.671 53.0935H138.279L143.202 39.4632C143.554 38.4549 144.319 37.9307 145.601 37.9307C146.822 37.9307 147.628 38.4749 147.959 39.4428L152.716 53.0935H149.283Z" fill="#42454F"/>
<path fill-rule="evenodd" clip-rule="evenodd" d="M157.907 53.0936C156.687 53.0936 155.963 52.4284 155.963 51.3395V38.092H159.376V50.4119H166.305V53.0936H157.907Z" fill="#42454F"/>
</svg>
